<mxfile host="app.diagrams.net" modified="2024-04-28T11:08:52.744Z" agent="Mozilla/5.0 (Windows NT 10.0; Win64; x64) AppleWebKit/537.36 (KHTML, like Gecko) Chrome/124.0.0.0 Safari/537.36" etag="_defQUzauDz7SAGrWn7Y" version="24.3.0" type="github">
  <diagram id="HK-v-iasPtkXijUS41WX" name="Page-1">
    <mxGraphModel dx="5797" dy="3306" grid="1" gridSize="10" guides="1" tooltips="1" connect="1" arrows="1" fold="1" page="1" pageScale="1" pageWidth="850" pageHeight="1100" math="0" shadow="0">
      <root>
        <mxCell id="0" />
        <mxCell id="1" parent="0" />
        <mxCell id="Fa00gK-TbnuEyR8pVeVM-1" value="" style="verticalLabelPosition=bottom;dashed=0;shadow=0;html=1;align=center;verticalAlign=top;shape=mxgraph.cabinets.cabinet;hasStand=1" vertex="1" parent="1">
          <mxGeometry x="-70" y="230" width="460" height="880" as="geometry" />
        </mxCell>
        <mxCell id="Fa00gK-TbnuEyR8pVeVM-2" value="" style="shape=mxgraph.cisco.switches.layer_3_switch;sketch=0;html=1;pointerEvents=1;dashed=0;fillColor=#036897;strokeColor=#ffffff;strokeWidth=2;verticalLabelPosition=bottom;verticalAlign=top;align=center;outlineConnect=0;" vertex="1" parent="1">
          <mxGeometry x="95" y="475" width="153" height="150" as="geometry" />
        </mxCell>
        <mxCell id="Fa00gK-TbnuEyR8pVeVM-4" value="" style="shape=mxgraph.cisco.routers.router;sketch=0;html=1;pointerEvents=1;dashed=0;fillColor=#036897;strokeColor=#ffffff;strokeWidth=2;verticalLabelPosition=bottom;verticalAlign=top;align=center;outlineConnect=0;" vertex="1" parent="1">
          <mxGeometry x="-30" y="650" width="136.5" height="100" as="geometry" />
        </mxCell>
        <mxCell id="Fa00gK-TbnuEyR8pVeVM-5" value="" style="fontColor=#0066CC;verticalAlign=top;verticalLabelPosition=bottom;labelPosition=center;align=center;html=1;outlineConnect=0;fillColor=#CCCCCC;strokeColor=#6881B3;gradientColor=none;gradientDirection=north;strokeWidth=2;shape=mxgraph.networks.ups_enterprise;" vertex="1" parent="1">
          <mxGeometry x="250" y="810" width="100" height="100" as="geometry" />
        </mxCell>
        <mxCell id="Fa00gK-TbnuEyR8pVeVM-6" value="" style="fontColor=#0066CC;verticalAlign=top;verticalLabelPosition=bottom;labelPosition=center;align=center;html=1;outlineConnect=0;fillColor=#CCCCCC;strokeColor=#6881B3;gradientColor=none;gradientDirection=north;strokeWidth=2;shape=mxgraph.networks.pc;" vertex="1" parent="1">
          <mxGeometry x="95" y="810" width="130" height="110" as="geometry" />
        </mxCell>
        <mxCell id="Fa00gK-TbnuEyR8pVeVM-7" value="" style="fontColor=#0066CC;verticalAlign=top;verticalLabelPosition=bottom;labelPosition=center;align=center;html=1;outlineConnect=0;fillColor=#CCCCCC;strokeColor=#6881B3;gradientColor=none;gradientDirection=north;strokeWidth=2;shape=mxgraph.networks.secured;" vertex="1" parent="1">
          <mxGeometry x="120" y="1040" width="80" height="100" as="geometry" />
        </mxCell>
        <mxCell id="Fa00gK-TbnuEyR8pVeVM-8" value="" style="fontColor=#0066CC;verticalAlign=top;verticalLabelPosition=bottom;labelPosition=center;align=center;html=1;outlineConnect=0;fillColor=#CCCCCC;strokeColor=#6881B3;gradientColor=none;gradientDirection=north;strokeWidth=2;shape=mxgraph.networks.patch_panel;" vertex="1" parent="1">
          <mxGeometry x="71.5" y="320" width="200" height="100" as="geometry" />
        </mxCell>
        <mxCell id="Fa00gK-TbnuEyR8pVeVM-9" value="" style="fontColor=#0066CC;verticalAlign=top;verticalLabelPosition=bottom;labelPosition=center;align=center;html=1;outlineConnect=0;fillColor=#CCCCCC;strokeColor=#6881B3;gradientColor=none;gradientDirection=north;strokeWidth=2;shape=mxgraph.networks.firewall;" vertex="1" parent="1">
          <mxGeometry x="330" y="590" width="100" height="100" as="geometry" />
        </mxCell>
        <mxCell id="Fa00gK-TbnuEyR8pVeVM-10" value="&lt;font style=&quot;font-size: 29px;&quot;&gt;IT Infrastructure&lt;/font&gt;" style="text;strokeColor=none;fillColor=none;html=1;fontSize=24;fontStyle=1;verticalAlign=middle;align=center;" vertex="1" parent="1">
          <mxGeometry x="24.25" y="1120" width="271.5" height="180" as="geometry" />
        </mxCell>
        <mxCell id="Fa00gK-TbnuEyR8pVeVM-11" value="" style="whiteSpace=wrap;html=1;aspect=fixed;" vertex="1" parent="1">
          <mxGeometry x="-1230" y="40" width="300" height="300" as="geometry" />
        </mxCell>
        <mxCell id="Fa00gK-TbnuEyR8pVeVM-12" value="" style="whiteSpace=wrap;html=1;aspect=fixed;" vertex="1" parent="1">
          <mxGeometry x="-1230" y="390" width="300" height="300" as="geometry" />
        </mxCell>
        <mxCell id="Fa00gK-TbnuEyR8pVeVM-13" value="&lt;font style=&quot;font-size: 28px;&quot;&gt;Operating Theatres&lt;/font&gt;" style="text;strokeColor=none;fillColor=none;html=1;fontSize=24;fontStyle=1;verticalAlign=middle;align=center;" vertex="1" parent="1">
          <mxGeometry x="-1130" y="730" width="100" height="40" as="geometry" />
        </mxCell>
        <mxCell id="Fa00gK-TbnuEyR8pVeVM-14" value="" style="whiteSpace=wrap;html=1;aspect=fixed;" vertex="1" parent="1">
          <mxGeometry x="-1280" y="830" width="400" height="400" as="geometry" />
        </mxCell>
        <mxCell id="Fa00gK-TbnuEyR8pVeVM-15" value="&lt;font style=&quot;font-size: 27px;&quot;&gt;Reception Room&lt;/font&gt;" style="text;strokeColor=none;fillColor=none;html=1;fontSize=24;fontStyle=1;verticalAlign=middle;align=center;" vertex="1" parent="1">
          <mxGeometry x="-1130" y="1260" width="100" height="40" as="geometry" />
        </mxCell>
        <mxCell id="Fa00gK-TbnuEyR8pVeVM-16" value="" style="rounded=0;whiteSpace=wrap;html=1;" vertex="1" parent="1">
          <mxGeometry x="-810" y="-230" width="445" height="210" as="geometry" />
        </mxCell>
        <mxCell id="Fa00gK-TbnuEyR8pVeVM-17" value="&lt;font style=&quot;font-size: 30px;&quot;&gt;Scanning Roo&lt;/font&gt;m" style="text;strokeColor=none;fillColor=none;html=1;fontSize=24;fontStyle=1;verticalAlign=middle;align=center;" vertex="1" parent="1">
          <mxGeometry x="-620" y="20" width="100" height="40" as="geometry" />
        </mxCell>
        <mxCell id="Fa00gK-TbnuEyR8pVeVM-20" value="" style="endArrow=classic;startArrow=classic;html=1;rounded=0;entryX=-0.003;entryY=0.391;entryDx=0;entryDy=0;entryPerimeter=0;exitX=1;exitY=0.614;exitDx=0;exitDy=0;exitPerimeter=0;" edge="1" parent="1" source="Fa00gK-TbnuEyR8pVeVM-12" target="Fa00gK-TbnuEyR8pVeVM-1">
          <mxGeometry width="50" height="50" relative="1" as="geometry">
            <mxPoint x="-750" y="570" as="sourcePoint" />
            <mxPoint x="-350" y="570" as="targetPoint" />
            <Array as="points">
              <mxPoint x="-550" y="570" />
            </Array>
          </mxGeometry>
        </mxCell>
        <mxCell id="Fa00gK-TbnuEyR8pVeVM-21" value="" style="shape=process;whiteSpace=wrap;html=1;backgroundOutline=1;" vertex="1" parent="1">
          <mxGeometry x="-1275" y="1400" width="400" height="280" as="geometry" />
        </mxCell>
        <mxCell id="Fa00gK-TbnuEyR8pVeVM-22" value="" style="shape=mxgraph.signs.people.waiting_room_2;html=1;pointerEvents=1;fillColor=#000000;strokeColor=none;verticalLabelPosition=bottom;verticalAlign=top;align=center;" vertex="1" parent="1">
          <mxGeometry x="-1219" y="1440" width="139" height="160" as="geometry" />
        </mxCell>
        <mxCell id="Fa00gK-TbnuEyR8pVeVM-23" value="" style="shape=mxgraph.signs.people.waiting_room_2;html=1;pointerEvents=1;fillColor=#000000;strokeColor=none;verticalLabelPosition=bottom;verticalAlign=top;align=center;" vertex="1" parent="1">
          <mxGeometry x="-1069" y="1430" width="139" height="160" as="geometry" />
        </mxCell>
        <mxCell id="Fa00gK-TbnuEyR8pVeVM-24" value="&lt;font style=&quot;font-size: 31px;&quot;&gt;Waiting Area&lt;/font&gt;" style="text;strokeColor=none;fillColor=none;html=1;fontSize=24;fontStyle=1;verticalAlign=middle;align=center;" vertex="1" parent="1">
          <mxGeometry x="-1245" y="1700" width="330" height="170" as="geometry" />
        </mxCell>
        <mxCell id="Fa00gK-TbnuEyR8pVeVM-26" value="" style="verticalLabelPosition=bottom;html=1;verticalAlign=top;align=center;shape=mxgraph.floorplan.room;fillColor=strokeColor;" vertex="1" parent="1">
          <mxGeometry x="28" y="-300" width="287" height="350" as="geometry" />
        </mxCell>
        <mxCell id="Fa00gK-TbnuEyR8pVeVM-27" value="" style="verticalLabelPosition=bottom;html=1;verticalAlign=top;align=center;shape=mxgraph.floorplan.room;fillColor=strokeColor;fontSize=36;" vertex="1" parent="1">
          <mxGeometry x="440" y="-300" width="420" height="350" as="geometry" />
        </mxCell>
        <mxCell id="Fa00gK-TbnuEyR8pVeVM-28" value="" style="verticalLabelPosition=bottom;html=1;verticalAlign=top;align=center;shape=mxgraph.floorplan.room;fillColor=strokeColor;" vertex="1" parent="1">
          <mxGeometry x="1070" y="-310" width="340" height="500" as="geometry" />
        </mxCell>
        <mxCell id="Fa00gK-TbnuEyR8pVeVM-29" value="" style="verticalLabelPosition=bottom;html=1;verticalAlign=top;align=center;shape=mxgraph.floorplan.room;fillColor=strokeColor;" vertex="1" parent="1">
          <mxGeometry x="730" y="320" width="330" height="290" as="geometry" />
        </mxCell>
        <mxCell id="Fa00gK-TbnuEyR8pVeVM-30" value="&lt;font style=&quot;font-size: 31px;&quot;&gt;Cafeteria&lt;/font&gt;" style="text;strokeColor=none;fillColor=none;html=1;fontSize=24;fontStyle=1;verticalAlign=middle;align=center;" vertex="1" parent="1">
          <mxGeometry x="845" y="620" width="100" height="40" as="geometry" />
        </mxCell>
        <mxCell id="Fa00gK-TbnuEyR8pVeVM-31" value="&lt;span style=&quot;font-size: 31px;&quot;&gt;Nurse&#39;s Station&lt;/span&gt;" style="text;strokeColor=none;fillColor=none;html=1;fontSize=24;fontStyle=1;verticalAlign=middle;align=center;" vertex="1" parent="1">
          <mxGeometry x="1075" y="140" width="330" height="170" as="geometry" />
        </mxCell>
        <mxCell id="Fa00gK-TbnuEyR8pVeVM-32" value="&lt;span style=&quot;font-size: 31px;&quot;&gt;E-Diagnosis Room&lt;/span&gt;" style="text;strokeColor=none;fillColor=none;html=1;fontSize=24;fontStyle=1;verticalAlign=middle;align=center;" vertex="1" parent="1">
          <mxGeometry x="490" width="330" height="170" as="geometry" />
        </mxCell>
        <mxCell id="Fa00gK-TbnuEyR8pVeVM-33" value="&lt;span style=&quot;font-size: 31px;&quot;&gt;Meeting Room&lt;/span&gt;" style="text;strokeColor=none;fillColor=none;html=1;fontSize=24;fontStyle=1;verticalAlign=middle;align=center;" vertex="1" parent="1">
          <mxGeometry x="6.5" y="-410" width="330" height="170" as="geometry" />
        </mxCell>
        <mxCell id="Fa00gK-TbnuEyR8pVeVM-34" value="" style="verticalLabelPosition=bottom;html=1;verticalAlign=top;align=center;shape=mxgraph.floorplan.room;fillColor=strokeColor;" vertex="1" parent="1">
          <mxGeometry x="640" y="730" width="780" height="740" as="geometry" />
        </mxCell>
        <mxCell id="Fa00gK-TbnuEyR8pVeVM-35" value="&lt;span style=&quot;font-size: 31px;&quot;&gt;GP Chambers&lt;/span&gt;" style="text;strokeColor=none;fillColor=none;html=1;fontSize=24;fontStyle=1;verticalAlign=middle;align=center;" vertex="1" parent="1">
          <mxGeometry x="990" y="1470" width="100" height="40" as="geometry" />
        </mxCell>
        <mxCell id="Fa00gK-TbnuEyR8pVeVM-37" value="" style="rounded=0;whiteSpace=wrap;html=1;" vertex="1" parent="1">
          <mxGeometry x="-160" y="1330" width="640" height="340" as="geometry" />
        </mxCell>
        <mxCell id="Fa00gK-TbnuEyR8pVeVM-38" value="&lt;span style=&quot;font-size: 31px;&quot;&gt;Health Care Assistant&#39;s&lt;/span&gt;" style="text;strokeColor=none;fillColor=none;html=1;fontSize=24;fontStyle=1;verticalAlign=middle;align=center;" vertex="1" parent="1">
          <mxGeometry x="100" y="1700" width="100" height="40" as="geometry" />
        </mxCell>
        <mxCell id="Fa00gK-TbnuEyR8pVeVM-39" value="" style="shape=mxgraph.cisco.switches.workgroup_switch;sketch=0;html=1;pointerEvents=1;dashed=0;fillColor=#036897;strokeColor=#ffffff;strokeWidth=2;verticalLabelPosition=bottom;verticalAlign=top;align=center;outlineConnect=0;" vertex="1" parent="1">
          <mxGeometry x="-1120" y="61" width="101" height="50" as="geometry" />
        </mxCell>
        <mxCell id="Fa00gK-TbnuEyR8pVeVM-40" value="" style="shape=mxgraph.cisco.switches.workgroup_switch;sketch=0;html=1;pointerEvents=1;dashed=0;fillColor=#036897;strokeColor=#ffffff;strokeWidth=2;verticalLabelPosition=bottom;verticalAlign=top;align=center;outlineConnect=0;" vertex="1" parent="1">
          <mxGeometry x="-1120" y="420" width="101" height="50" as="geometry" />
        </mxCell>
        <mxCell id="Fa00gK-TbnuEyR8pVeVM-41" value="" style="fontColor=#0066CC;verticalAlign=top;verticalLabelPosition=bottom;labelPosition=center;align=center;html=1;outlineConnect=0;fillColor=#CCCCCC;strokeColor=#6881B3;gradientColor=none;gradientDirection=north;strokeWidth=2;shape=mxgraph.networks.pc;" vertex="1" parent="1">
          <mxGeometry x="-1039.5" y="160" width="80" height="70" as="geometry" />
        </mxCell>
        <mxCell id="Fa00gK-TbnuEyR8pVeVM-42" value="" style="fontColor=#0066CC;verticalAlign=top;verticalLabelPosition=bottom;labelPosition=center;align=center;html=1;outlineConnect=0;fillColor=#CCCCCC;strokeColor=#6881B3;gradientColor=none;gradientDirection=north;strokeWidth=2;shape=mxgraph.networks.pc;" vertex="1" parent="1">
          <mxGeometry x="-1039.5" y="590" width="80" height="70" as="geometry" />
        </mxCell>
        <mxCell id="Fa00gK-TbnuEyR8pVeVM-43" value="" style="shape=image;html=1;verticalAlign=top;verticalLabelPosition=bottom;labelBackgroundColor=#ffffff;imageAspect=0;aspect=fixed;image=https://cdn3.iconfinder.com/data/icons/medical-equipment-33/512/MedicIcon-19-19-128.png;fontSize=36;" vertex="1" parent="1">
          <mxGeometry x="-1209" y="240" width="89" height="89" as="geometry" />
        </mxCell>
        <mxCell id="Fa00gK-TbnuEyR8pVeVM-44" value="" style="shape=image;html=1;verticalAlign=top;verticalLabelPosition=bottom;labelBackgroundColor=#ffffff;imageAspect=0;aspect=fixed;image=https://cdn3.iconfinder.com/data/icons/medical-equipment-33/512/MedicIcon-19-19-128.png;fontSize=36;" vertex="1" parent="1">
          <mxGeometry x="-1209" y="490" width="89" height="89" as="geometry" />
        </mxCell>
        <mxCell id="Fa00gK-TbnuEyR8pVeVM-45" value="" style="shape=mxgraph.cisco.modems_and_phones.ip_phone;sketch=0;html=1;pointerEvents=1;dashed=0;fillColor=#036897;strokeColor=#ffffff;strokeWidth=2;verticalLabelPosition=bottom;verticalAlign=top;align=center;outlineConnect=0;" vertex="1" parent="1">
          <mxGeometry x="-1190" y="610" width="90" height="50" as="geometry" />
        </mxCell>
        <mxCell id="Fa00gK-TbnuEyR8pVeVM-46" value="" style="shape=mxgraph.cisco.modems_and_phones.ip_phone;sketch=0;html=1;pointerEvents=1;dashed=0;fillColor=#036897;strokeColor=#ffffff;strokeWidth=2;verticalLabelPosition=bottom;verticalAlign=top;align=center;outlineConnect=0;" vertex="1" parent="1">
          <mxGeometry x="-1209" y="150" width="90" height="50" as="geometry" />
        </mxCell>
        <mxCell id="Fa00gK-TbnuEyR8pVeVM-47" value="" style="fontColor=#0066CC;verticalAlign=top;verticalLabelPosition=bottom;labelPosition=center;align=center;html=1;outlineConnect=0;fillColor=#CCCCCC;strokeColor=#6881B3;gradientColor=none;gradientDirection=north;strokeWidth=2;shape=mxgraph.networks.pc;" vertex="1" parent="1">
          <mxGeometry x="-1250" y="860" width="80" height="70" as="geometry" />
        </mxCell>
        <mxCell id="Fa00gK-TbnuEyR8pVeVM-48" value="" style="fontColor=#0066CC;verticalAlign=top;verticalLabelPosition=bottom;labelPosition=center;align=center;html=1;outlineConnect=0;fillColor=#CCCCCC;strokeColor=#6881B3;gradientColor=none;gradientDirection=north;strokeWidth=2;shape=mxgraph.networks.pc;" vertex="1" parent="1">
          <mxGeometry x="-1250" y="980" width="80" height="70" as="geometry" />
        </mxCell>
        <mxCell id="Fa00gK-TbnuEyR8pVeVM-49" value="" style="shape=mxgraph.cisco.switches.workgroup_switch;sketch=0;html=1;pointerEvents=1;dashed=0;fillColor=#036897;strokeColor=#ffffff;strokeWidth=2;verticalLabelPosition=bottom;verticalAlign=top;align=center;outlineConnect=0;" vertex="1" parent="1">
          <mxGeometry x="-1125.5" y="860" width="101" height="50" as="geometry" />
        </mxCell>
        <mxCell id="Fa00gK-TbnuEyR8pVeVM-50" value="" style="shape=mxgraph.cisco.modems_and_phones.ip_phone;sketch=0;html=1;pointerEvents=1;dashed=0;fillColor=#036897;strokeColor=#ffffff;strokeWidth=2;verticalLabelPosition=bottom;verticalAlign=top;align=center;outlineConnect=0;" vertex="1" parent="1">
          <mxGeometry x="-1149.5" y="1100" width="139" height="100" as="geometry" />
        </mxCell>
        <mxCell id="Fa00gK-TbnuEyR8pVeVM-51" value="" style="shape=image;html=1;verticalAlign=top;verticalLabelPosition=bottom;labelBackgroundColor=#ffffff;imageAspect=0;aspect=fixed;image=https://cdn0.iconfinder.com/data/icons/evericons-24px-vol-1/24/creditcard-scan-128.png;fontSize=36;" vertex="1" parent="1">
          <mxGeometry x="-780" y="-210" width="59" height="59" as="geometry" />
        </mxCell>
        <mxCell id="Fa00gK-TbnuEyR8pVeVM-52" value="" style="shape=mxgraph.cisco.modems_and_phones.ip_phone;sketch=0;html=1;pointerEvents=1;dashed=0;fillColor=#036897;strokeColor=#ffffff;strokeWidth=2;verticalLabelPosition=bottom;verticalAlign=top;align=center;outlineConnect=0;" vertex="1" parent="1">
          <mxGeometry x="-721" y="-90" width="90" height="50" as="geometry" />
        </mxCell>
        <mxCell id="Fa00gK-TbnuEyR8pVeVM-53" value="" style="fontColor=#0066CC;verticalAlign=top;verticalLabelPosition=bottom;labelPosition=center;align=center;html=1;outlineConnect=0;fillColor=#CCCCCC;strokeColor=#6881B3;gradientColor=none;gradientDirection=north;strokeWidth=2;shape=mxgraph.networks.pc;" vertex="1" parent="1">
          <mxGeometry x="-627.5" y="-221" width="80" height="70" as="geometry" />
        </mxCell>
        <mxCell id="Fa00gK-TbnuEyR8pVeVM-54" value="" style="shape=mxgraph.cisco.switches.workgroup_switch;sketch=0;html=1;pointerEvents=1;dashed=0;fillColor=#036897;strokeColor=#ffffff;strokeWidth=2;verticalLabelPosition=bottom;verticalAlign=top;align=center;outlineConnect=0;" vertex="1" parent="1">
          <mxGeometry x="-500" y="-151" width="101" height="50" as="geometry" />
        </mxCell>
        <mxCell id="Fa00gK-TbnuEyR8pVeVM-55" value="" style="shape=image;html=1;verticalAlign=top;verticalLabelPosition=bottom;labelBackgroundColor=#ffffff;imageAspect=0;aspect=fixed;image=https://cdn4.iconfinder.com/data/icons/internet-networking-and-communication-glyph-24/24/Laptop_video_call_video_chat_video_conference_voice_chatting-128.png;fontSize=36;" vertex="1" parent="1">
          <mxGeometry x="134.25" y="-284.5" width="74.5" height="74.5" as="geometry" />
        </mxCell>
        <mxCell id="Fa00gK-TbnuEyR8pVeVM-56" value="" style="shape=mxgraph.cisco.modems_and_phones.ip_phone;sketch=0;html=1;pointerEvents=1;dashed=0;fillColor=#036897;strokeColor=#ffffff;strokeWidth=2;verticalLabelPosition=bottom;verticalAlign=top;align=center;outlineConnect=0;" vertex="1" parent="1">
          <mxGeometry x="135" y="-50" width="90" height="50" as="geometry" />
        </mxCell>
        <mxCell id="Fa00gK-TbnuEyR8pVeVM-57" value="" style="shape=mxgraph.cisco.switches.workgroup_switch;sketch=0;html=1;pointerEvents=1;dashed=0;fillColor=#036897;strokeColor=#ffffff;strokeWidth=2;verticalLabelPosition=bottom;verticalAlign=top;align=center;outlineConnect=0;" vertex="1" parent="1">
          <mxGeometry x="60" y="-170" width="101" height="50" as="geometry" />
        </mxCell>
        <mxCell id="Fa00gK-TbnuEyR8pVeVM-58" value="" style="shape=image;html=1;verticalAlign=top;verticalLabelPosition=bottom;labelBackgroundColor=#ffffff;imageAspect=0;aspect=fixed;image=https://cdn0.iconfinder.com/data/icons/evericons-24px-vol-1/24/creditcard-scan-128.png;fontSize=36;" vertex="1" parent="1">
          <mxGeometry x="480" y="-269" width="59" height="59" as="geometry" />
        </mxCell>
        <mxCell id="Fa00gK-TbnuEyR8pVeVM-59" value="" style="shape=mxgraph.cisco.switches.workgroup_switch;sketch=0;html=1;pointerEvents=1;dashed=0;fillColor=#036897;strokeColor=#ffffff;strokeWidth=2;verticalLabelPosition=bottom;verticalAlign=top;align=center;outlineConnect=0;" vertex="1" parent="1">
          <mxGeometry x="480" y="-40" width="101" height="50" as="geometry" />
        </mxCell>
        <mxCell id="Fa00gK-TbnuEyR8pVeVM-60" value="" style="shape=mxgraph.cisco.modems_and_phones.ip_phone;sketch=0;html=1;pointerEvents=1;dashed=0;fillColor=#036897;strokeColor=#ffffff;strokeWidth=2;verticalLabelPosition=bottom;verticalAlign=top;align=center;outlineConnect=0;" vertex="1" parent="1">
          <mxGeometry x="730" y="-160" width="90" height="50" as="geometry" />
        </mxCell>
        <mxCell id="Fa00gK-TbnuEyR8pVeVM-61" value="" style="shape=image;html=1;verticalAlign=top;verticalLabelPosition=bottom;labelBackgroundColor=#ffffff;imageAspect=0;aspect=fixed;image=https://cdn4.iconfinder.com/data/icons/internet-networking-and-communication-glyph-24/24/Laptop_video_call_video_chat_video_conference_voice_chatting-128.png;fontSize=36;" vertex="1" parent="1">
          <mxGeometry x="612.75" y="-269" width="74.5" height="74.5" as="geometry" />
        </mxCell>
        <mxCell id="Fa00gK-TbnuEyR8pVeVM-62" value="" style="fontColor=#0066CC;verticalAlign=top;verticalLabelPosition=bottom;labelPosition=center;align=center;html=1;outlineConnect=0;fillColor=#CCCCCC;strokeColor=#6881B3;gradientColor=none;gradientDirection=north;strokeWidth=2;shape=mxgraph.networks.pc;" vertex="1" parent="1">
          <mxGeometry x="1110" y="-274.5" width="80" height="70" as="geometry" />
        </mxCell>
        <mxCell id="Fa00gK-TbnuEyR8pVeVM-63" value="" style="fontColor=#0066CC;verticalAlign=top;verticalLabelPosition=bottom;labelPosition=center;align=center;html=1;outlineConnect=0;fillColor=#CCCCCC;strokeColor=#6881B3;gradientColor=none;gradientDirection=north;strokeWidth=2;shape=mxgraph.networks.pc;" vertex="1" parent="1">
          <mxGeometry x="1110" y="-180" width="80" height="70" as="geometry" />
        </mxCell>
        <mxCell id="Fa00gK-TbnuEyR8pVeVM-64" value="" style="fontColor=#0066CC;verticalAlign=top;verticalLabelPosition=bottom;labelPosition=center;align=center;html=1;outlineConnect=0;fillColor=#CCCCCC;strokeColor=#6881B3;gradientColor=none;gradientDirection=north;strokeWidth=2;shape=mxgraph.networks.pc;" vertex="1" parent="1">
          <mxGeometry x="1110" y="-80" width="80" height="70" as="geometry" />
        </mxCell>
        <mxCell id="Fa00gK-TbnuEyR8pVeVM-65" value="" style="fontColor=#0066CC;verticalAlign=top;verticalLabelPosition=bottom;labelPosition=center;align=center;html=1;outlineConnect=0;fillColor=#CCCCCC;strokeColor=#6881B3;gradientColor=none;gradientDirection=north;strokeWidth=2;shape=mxgraph.networks.pc;" vertex="1" parent="1">
          <mxGeometry x="1275" y="-274.5" width="80" height="70" as="geometry" />
        </mxCell>
        <mxCell id="Fa00gK-TbnuEyR8pVeVM-66" value="" style="fontColor=#0066CC;verticalAlign=top;verticalLabelPosition=bottom;labelPosition=center;align=center;html=1;outlineConnect=0;fillColor=#CCCCCC;strokeColor=#6881B3;gradientColor=none;gradientDirection=north;strokeWidth=2;shape=mxgraph.networks.pc;" vertex="1" parent="1">
          <mxGeometry x="1270" y="-180" width="80" height="70" as="geometry" />
        </mxCell>
        <mxCell id="Fa00gK-TbnuEyR8pVeVM-67" value="" style="fontColor=#0066CC;verticalAlign=top;verticalLabelPosition=bottom;labelPosition=center;align=center;html=1;outlineConnect=0;fillColor=#CCCCCC;strokeColor=#6881B3;gradientColor=none;gradientDirection=north;strokeWidth=2;shape=mxgraph.networks.pc;" vertex="1" parent="1">
          <mxGeometry x="1275" y="-80" width="80" height="70" as="geometry" />
        </mxCell>
        <mxCell id="Fa00gK-TbnuEyR8pVeVM-68" value="" style="shape=mxgraph.cisco.modems_and_phones.ip_phone;sketch=0;html=1;pointerEvents=1;dashed=0;fillColor=#036897;strokeColor=#ffffff;strokeWidth=2;verticalLabelPosition=bottom;verticalAlign=top;align=center;outlineConnect=0;" vertex="1" parent="1">
          <mxGeometry x="1190" y="11" width="90" height="50" as="geometry" />
        </mxCell>
        <mxCell id="Fa00gK-TbnuEyR8pVeVM-69" value="" style="shape=mxgraph.cisco.switches.workgroup_switch;sketch=0;html=1;pointerEvents=1;dashed=0;fillColor=#036897;strokeColor=#ffffff;strokeWidth=2;verticalLabelPosition=bottom;verticalAlign=top;align=center;outlineConnect=0;" vertex="1" parent="1">
          <mxGeometry x="1099.5" y="100" width="101" height="50" as="geometry" />
        </mxCell>
        <mxCell id="Fa00gK-TbnuEyR8pVeVM-70" value="" style="shape=mxgraph.cisco.switches.workgroup_switch;sketch=0;html=1;pointerEvents=1;dashed=0;fillColor=#036897;strokeColor=#ffffff;strokeWidth=2;verticalLabelPosition=bottom;verticalAlign=top;align=center;outlineConnect=0;" vertex="1" parent="1">
          <mxGeometry x="759" y="430" width="101" height="50" as="geometry" />
        </mxCell>
        <mxCell id="Fa00gK-TbnuEyR8pVeVM-71" value="" style="shape=mxgraph.cisco.modems_and_phones.ip_phone;sketch=0;html=1;pointerEvents=1;dashed=0;fillColor=#036897;strokeColor=#ffffff;strokeWidth=2;verticalLabelPosition=bottom;verticalAlign=top;align=center;outlineConnect=0;" vertex="1" parent="1">
          <mxGeometry x="940" y="345" width="90" height="50" as="geometry" />
        </mxCell>
        <mxCell id="Fa00gK-TbnuEyR8pVeVM-72" value="" style="shape=mxgraph.cisco.switches.workgroup_switch;sketch=0;html=1;pointerEvents=1;dashed=0;fillColor=#036897;strokeColor=#ffffff;strokeWidth=2;verticalLabelPosition=bottom;verticalAlign=top;align=center;outlineConnect=0;" vertex="1" parent="1">
          <mxGeometry x="939.5" y="770" width="181" height="110" as="geometry" />
        </mxCell>
        <mxCell id="Fa00gK-TbnuEyR8pVeVM-73" value="" style="rounded=0;whiteSpace=wrap;html=1;rotation=90;" vertex="1" parent="1">
          <mxGeometry x="640" y="960" width="250" height="110" as="geometry" />
        </mxCell>
        <mxCell id="Fa00gK-TbnuEyR8pVeVM-74" value="" style="rounded=0;whiteSpace=wrap;html=1;rotation=90;" vertex="1" parent="1">
          <mxGeometry x="880" y="975" width="250" height="110" as="geometry" />
        </mxCell>
        <mxCell id="Fa00gK-TbnuEyR8pVeVM-75" value="" style="rounded=0;whiteSpace=wrap;html=1;rotation=90;" vertex="1" parent="1">
          <mxGeometry x="1140" y="960" width="250" height="110" as="geometry" />
        </mxCell>
        <mxCell id="Fa00gK-TbnuEyR8pVeVM-76" value="" style="rounded=0;whiteSpace=wrap;html=1;rotation=90;" vertex="1" parent="1">
          <mxGeometry x="640" y="1250" width="250" height="110" as="geometry" />
        </mxCell>
        <mxCell id="Fa00gK-TbnuEyR8pVeVM-77" value="" style="rounded=0;whiteSpace=wrap;html=1;rotation=90;" vertex="1" parent="1">
          <mxGeometry x="880" y="1250" width="250" height="110" as="geometry" />
        </mxCell>
        <mxCell id="Fa00gK-TbnuEyR8pVeVM-78" value="" style="rounded=0;whiteSpace=wrap;html=1;rotation=90;" vertex="1" parent="1">
          <mxGeometry x="1140" y="1250" width="250" height="110" as="geometry" />
        </mxCell>
        <mxCell id="Fa00gK-TbnuEyR8pVeVM-80" value="" style="image;html=1;image=img/lib/clip_art/networking/Wireless_Router_N_128x128.png" vertex="1" parent="1">
          <mxGeometry x="725" y="920" width="80" height="80" as="geometry" />
        </mxCell>
        <mxCell id="Fa00gK-TbnuEyR8pVeVM-81" value="" style="image;html=1;image=img/lib/clip_art/networking/Wireless_Router_N_128x128.png" vertex="1" parent="1">
          <mxGeometry x="965" y="940" width="80" height="80" as="geometry" />
        </mxCell>
        <mxCell id="Fa00gK-TbnuEyR8pVeVM-82" value="" style="image;html=1;image=img/lib/clip_art/networking/Wireless_Router_N_128x128.png" vertex="1" parent="1">
          <mxGeometry x="1235" y="930" width="80" height="80" as="geometry" />
        </mxCell>
        <mxCell id="Fa00gK-TbnuEyR8pVeVM-83" value="" style="image;html=1;image=img/lib/clip_art/networking/Wireless_Router_N_128x128.png" vertex="1" parent="1">
          <mxGeometry x="725" y="1200" width="80" height="80" as="geometry" />
        </mxCell>
        <mxCell id="Fa00gK-TbnuEyR8pVeVM-84" value="" style="image;html=1;image=img/lib/clip_art/networking/Wireless_Router_N_128x128.png" vertex="1" parent="1">
          <mxGeometry x="965" y="1200" width="80" height="80" as="geometry" />
        </mxCell>
        <mxCell id="Fa00gK-TbnuEyR8pVeVM-85" value="" style="image;html=1;image=img/lib/clip_art/networking/Wireless_Router_N_128x128.png" vertex="1" parent="1">
          <mxGeometry x="1225" y="1210" width="80" height="80" as="geometry" />
        </mxCell>
        <mxCell id="Fa00gK-TbnuEyR8pVeVM-86" value="" style="image;html=1;image=img/lib/clip_art/people/Doctor_Man_128x128.png" vertex="1" parent="1">
          <mxGeometry x="725" y="1050" width="80" height="80" as="geometry" />
        </mxCell>
        <mxCell id="Fa00gK-TbnuEyR8pVeVM-87" value="" style="image;html=1;image=img/lib/clip_art/people/Doctor_Man_128x128.png" vertex="1" parent="1">
          <mxGeometry x="965" y="1050" width="80" height="80" as="geometry" />
        </mxCell>
        <mxCell id="Fa00gK-TbnuEyR8pVeVM-88" value="" style="image;html=1;image=img/lib/clip_art/people/Doctor_Man_128x128.png" vertex="1" parent="1">
          <mxGeometry x="1235" y="1050" width="80" height="80" as="geometry" />
        </mxCell>
        <mxCell id="Fa00gK-TbnuEyR8pVeVM-89" value="" style="image;html=1;image=img/lib/clip_art/people/Doctor_Man_128x128.png" vertex="1" parent="1">
          <mxGeometry x="725" y="1330" width="80" height="80" as="geometry" />
        </mxCell>
        <mxCell id="Fa00gK-TbnuEyR8pVeVM-90" value="" style="image;html=1;image=img/lib/clip_art/people/Doctor_Man_128x128.png" vertex="1" parent="1">
          <mxGeometry x="965" y="1340" width="80" height="80" as="geometry" />
        </mxCell>
        <mxCell id="Fa00gK-TbnuEyR8pVeVM-91" value="" style="image;html=1;image=img/lib/clip_art/people/Doctor_Man_128x128.png" vertex="1" parent="1">
          <mxGeometry x="1225" y="1330" width="80" height="80" as="geometry" />
        </mxCell>
        <mxCell id="Fa00gK-TbnuEyR8pVeVM-92" value="" style="image;html=1;image=img/lib/clip_art/networking/Wireless_Router_N_128x128.png" vertex="1" parent="1">
          <mxGeometry x="930" y="470" width="80" height="80" as="geometry" />
        </mxCell>
        <mxCell id="Fa00gK-TbnuEyR8pVeVM-93" value="" style="image;html=1;image=img/lib/clip_art/networking/Wireless_Router_N_128x128.png" vertex="1" parent="1">
          <mxGeometry x="200" y="-185" width="80" height="80" as="geometry" />
        </mxCell>
        <mxCell id="Fa00gK-TbnuEyR8pVeVM-94" value="" style="image;html=1;image=img/lib/clip_art/networking/Wireless_Router_N_128x128.png" vertex="1" parent="1">
          <mxGeometry x="720" y="-65" width="80" height="80" as="geometry" />
        </mxCell>
        <mxCell id="Fa00gK-TbnuEyR8pVeVM-95" value="" style="fontColor=#0066CC;verticalAlign=top;verticalLabelPosition=bottom;labelPosition=center;align=center;html=1;outlineConnect=0;fillColor=#CCCCCC;strokeColor=#6881B3;gradientColor=none;gradientDirection=north;strokeWidth=2;shape=mxgraph.networks.pc;" vertex="1" parent="1">
          <mxGeometry x="-55.75" y="1400" width="80" height="70" as="geometry" />
        </mxCell>
        <mxCell id="Fa00gK-TbnuEyR8pVeVM-96" value="" style="fontColor=#0066CC;verticalAlign=top;verticalLabelPosition=bottom;labelPosition=center;align=center;html=1;outlineConnect=0;fillColor=#CCCCCC;strokeColor=#6881B3;gradientColor=none;gradientDirection=north;strokeWidth=2;shape=mxgraph.networks.pc;" vertex="1" parent="1">
          <mxGeometry x="295.75" y="1400" width="80" height="70" as="geometry" />
        </mxCell>
        <mxCell id="Fa00gK-TbnuEyR8pVeVM-97" value="" style="shape=mxgraph.cisco.modems_and_phones.ip_phone;sketch=0;html=1;pointerEvents=1;dashed=0;fillColor=#036897;strokeColor=#ffffff;strokeWidth=2;verticalLabelPosition=bottom;verticalAlign=top;align=center;outlineConnect=0;" vertex="1" parent="1">
          <mxGeometry x="-65.75" y="1530" width="90" height="50" as="geometry" />
        </mxCell>
        <mxCell id="Fa00gK-TbnuEyR8pVeVM-98" value="" style="shape=mxgraph.cisco.modems_and_phones.ip_phone;sketch=0;html=1;pointerEvents=1;dashed=0;fillColor=#036897;strokeColor=#ffffff;strokeWidth=2;verticalLabelPosition=bottom;verticalAlign=top;align=center;outlineConnect=0;" vertex="1" parent="1">
          <mxGeometry x="310" y="1530" width="90" height="50" as="geometry" />
        </mxCell>
        <mxCell id="Fa00gK-TbnuEyR8pVeVM-99" value="" style="shape=mxgraph.cisco.switches.workgroup_switch;sketch=0;html=1;pointerEvents=1;dashed=0;fillColor=#036897;strokeColor=#ffffff;strokeWidth=2;verticalLabelPosition=bottom;verticalAlign=top;align=center;outlineConnect=0;" vertex="1" parent="1">
          <mxGeometry x="69.5" y="1340" width="181" height="110" as="geometry" />
        </mxCell>
        <mxCell id="Fa00gK-TbnuEyR8pVeVM-100" value="" style="endArrow=classic;startArrow=classic;html=1;rounded=0;exitX=1;exitY=0.5;exitDx=0;exitDy=0;entryX=-0.001;entryY=0.184;entryDx=0;entryDy=0;entryPerimeter=0;" edge="1" parent="1" source="Fa00gK-TbnuEyR8pVeVM-11" target="Fa00gK-TbnuEyR8pVeVM-1">
          <mxGeometry width="50" height="50" relative="1" as="geometry">
            <mxPoint x="-900" y="200" as="sourcePoint" />
            <mxPoint x="-90" y="390" as="targetPoint" />
          </mxGeometry>
        </mxCell>
        <mxCell id="Fa00gK-TbnuEyR8pVeVM-101" value="" style="endArrow=classic;startArrow=classic;html=1;rounded=0;exitX=1;exitY=1;exitDx=0;exitDy=0;" edge="1" parent="1" source="Fa00gK-TbnuEyR8pVeVM-16">
          <mxGeometry width="50" height="50" relative="1" as="geometry">
            <mxPoint x="-220" y="150" as="sourcePoint" />
            <mxPoint x="-60" y="210" as="targetPoint" />
          </mxGeometry>
        </mxCell>
        <mxCell id="Fa00gK-TbnuEyR8pVeVM-102" value="" style="endArrow=classic;startArrow=classic;html=1;rounded=0;exitX=0.55;exitY=-0.002;exitDx=0;exitDy=0;exitPerimeter=0;entryX=0.505;entryY=0.997;entryDx=0;entryDy=0;entryPerimeter=0;" edge="1" parent="1" source="Fa00gK-TbnuEyR8pVeVM-1" target="Fa00gK-TbnuEyR8pVeVM-26">
          <mxGeometry width="50" height="50" relative="1" as="geometry">
            <mxPoint x="140" y="200" as="sourcePoint" />
            <mxPoint x="180" y="140" as="targetPoint" />
          </mxGeometry>
        </mxCell>
        <mxCell id="Fa00gK-TbnuEyR8pVeVM-103" value="" style="endArrow=classic;startArrow=classic;html=1;rounded=0;entryX=0.076;entryY=1.017;entryDx=0;entryDy=0;entryPerimeter=0;exitX=1.003;exitY=-0.001;exitDx=0;exitDy=0;exitPerimeter=0;" edge="1" parent="1" source="Fa00gK-TbnuEyR8pVeVM-1" target="Fa00gK-TbnuEyR8pVeVM-27">
          <mxGeometry width="50" height="50" relative="1" as="geometry">
            <mxPoint x="400" y="220" as="sourcePoint" />
            <mxPoint x="450" y="170" as="targetPoint" />
          </mxGeometry>
        </mxCell>
        <mxCell id="Fa00gK-TbnuEyR8pVeVM-104" value="" style="endArrow=classic;startArrow=classic;html=1;rounded=0;entryX=-0.005;entryY=0.839;entryDx=0;entryDy=0;entryPerimeter=0;exitX=1.004;exitY=0.073;exitDx=0;exitDy=0;exitPerimeter=0;" edge="1" parent="1" source="Fa00gK-TbnuEyR8pVeVM-1" target="Fa00gK-TbnuEyR8pVeVM-28">
          <mxGeometry width="50" height="50" relative="1" as="geometry">
            <mxPoint x="460" y="280" as="sourcePoint" />
            <mxPoint x="510" y="230" as="targetPoint" />
          </mxGeometry>
        </mxCell>
        <mxCell id="Fa00gK-TbnuEyR8pVeVM-105" value="" style="endArrow=classic;startArrow=classic;html=1;rounded=0;entryX=0.005;entryY=0.476;entryDx=0;entryDy=0;entryPerimeter=0;exitX=1;exitY=0.259;exitDx=0;exitDy=0;exitPerimeter=0;" edge="1" parent="1" source="Fa00gK-TbnuEyR8pVeVM-1" target="Fa00gK-TbnuEyR8pVeVM-29">
          <mxGeometry width="50" height="50" relative="1" as="geometry">
            <mxPoint x="490" y="450" as="sourcePoint" />
            <mxPoint x="540" y="400" as="targetPoint" />
          </mxGeometry>
        </mxCell>
        <mxCell id="Fa00gK-TbnuEyR8pVeVM-106" value="" style="endArrow=classic;startArrow=classic;html=1;rounded=0;entryX=0;entryY=0.23;entryDx=0;entryDy=0;entryPerimeter=0;exitX=0.986;exitY=0.71;exitDx=0;exitDy=0;exitPerimeter=0;" edge="1" parent="1" source="Fa00gK-TbnuEyR8pVeVM-1" target="Fa00gK-TbnuEyR8pVeVM-34">
          <mxGeometry width="50" height="50" relative="1" as="geometry">
            <mxPoint x="470" y="870" as="sourcePoint" />
            <mxPoint x="520" y="820" as="targetPoint" />
          </mxGeometry>
        </mxCell>
        <mxCell id="Fa00gK-TbnuEyR8pVeVM-107" value="" style="endArrow=classic;startArrow=classic;html=1;rounded=0;entryX=0.035;entryY=1;entryDx=0;entryDy=0;entryPerimeter=0;exitX=0.159;exitY=-0.006;exitDx=0;exitDy=0;exitPerimeter=0;" edge="1" parent="1" source="Fa00gK-TbnuEyR8pVeVM-37" target="Fa00gK-TbnuEyR8pVeVM-1">
          <mxGeometry width="50" height="50" relative="1" as="geometry">
            <mxPoint x="-80" y="1220" as="sourcePoint" />
            <mxPoint x="-30" y="1170" as="targetPoint" />
          </mxGeometry>
        </mxCell>
      </root>
    </mxGraphModel>
  </diagram>
</mxfile>
